Coordinates

Units are S.I. units (second, meters, Newtons, ...)
If the header above contains a line with 'inDegrees', this indicates whether rotational values are in degrees (yes) or radians (no).

inDegrees=no
nColumns=21
nRows=30
DataType=double
version=3
OpenSimVersion=4.6-2026-03-31-d6972f9e6
endheader
time	/jointset/ground_pelvis/pelvis_tilt/value	/jointset/ground_pelvis/pelvis_list/value	/jointset/ground_pelvis/pelvis_rotation/value	/jointset/ground_pelvis/pelvis_tx/value	/jointset/ground_pelvis/pelvis_ty/value	/jointset/ground_pelvis/pelvis_tz/value	/jointset/hip_r/hip_flexion_r/value	/jointset/hip_r/hip_adduction_r/value	/jointset/hip_r/hip_rotation_r/value	/jointset/walker_knee_r/knee_angle_r/value	/jointset/patellofemoral_r/knee_angle_r_beta/value	/jointset/ankle_r/ankle_angle_r/value	/jointset/subtalar_r/subtalar_angle_r/value	/jointset/hip_l/hip_flexion_l/value	/jointset/hip_l/hip_adduction_l/value	/jointset/hip_l/hip_rotation_l/value	/jointset/walker_knee_l/knee_angle_l/value	/jointset/patellofemoral_l/knee_angle_l_beta/value	/jointset/ankle_l/ankle_angle_l/value	/jointset/subtalar_l/subtalar_angle_l/value
139.996	-0.04495958030227946	0.03277409987189966	0.04318748084115284	1.102685540000064	1.096183180000054	-0.4044105800000244	-0.2137272284986509	-0.08846789978383932	-0.1012762040993865	0.634272729838758	0.6342727300000353	-0.5573291401456693	-0.2843748162337296	0.2891205741640825	0.05105520327779536	0.02067512162443985	0.1394641369383207	0.1394641400000073	0.06112585882875645	-0.2111541876699381
140	-0.03996521864775179	0.03298050495533199	0.04230953041820515	1.102592328552253	1.09417368197184	-0.4046103127071013	-0.2086495532809717	-0.09110502604029876	-0.09572688049675246	0.6618597273640048	0.6618597274329401	-0.5554740808242059	-0.3048454743832547	0.2819053104144424	0.05128112625681308	0.01983729651482903	0.1507658318449568	0.1507658342315652	0.05347179147672148	-0.2183520710976498
140.004	-0.03498003432308807	0.03330060131519109	0.04151891872749413	1.102478455690033	1.09214898675146	-0.4048178829921426	-0.2035216471833195	-0.09388176942859301	-0.09033894222100151	0.6894770847648803	0.6894770847411625	-0.5534864771857377	-0.3251072548474153	0.2747779607110782	0.0516514022699867	0.01898034769853699	0.1622416499972427	0.1622416517389617	0.04618952962384108	-0.2255257319005518
140.008	-0.03001329515437284	0.03384495383889562	0.04090157543276313	1.102323591709376	1.090094528979026	-0.405040889627746	-0.1982933901465817	-0.09693450997894494	-0.08526881038910961	0.7171544688846274	0.7171544687681439	-0.5512334608294391	-0.3449562640589016	0.267824320399976	0.05230605626450187	0.01808835818964087	0.1740624986373275	0.1740624997916747	0.03963839326056258	-0.2326512351041455
140.012	-0.02507451239946454	0.03471786198088996	0.04054056825883486	1.102108073888451	1.087996974612792	-0.4052864569560805	-0.1929148796746508	-0.1003930593746993	-0.0806630356218897	0.7449199653186264	0.7449199651100806	-0.5485820137540731	-0.364198338424396	0.2611260351683199	0.05337649678793309	0.01715160892402391	0.1863927005879916	0.1863927012346639	0.03415310039514322	-0.2397052135741049
140.016	-0.02017370591322282	0.03601425834796657	0.04051455075571986	1.101813248106937	1.085844761802623	-0.4055610040923678	-0.1873365137540108	-0.1043772364111479	-0.07665353968246991	0.7727988633885431	0.7727988630898872	-0.5454000160862731	-0.3826533660847231	0.2547587330580937	0.05498136102648325	0.01616910381195513	0.1993863624065394	0.1993863626408278	0.03003239114246224	-0.2466651266111123
140.02	-0.01532180498879929	0.03781677330631558	0.04089605023119321	1.101421817581382	1.083628565434783	-0.4058700197349886	-0.1815090197830681	-0.1089934677828046	-0.0733531254930688	0.800812075128036	0.8008120747428322	-0.5415583504384062	-0.4001590741045743	0.2487903733473315	0.05722265328835383	0.01515035885791619	0.2131834441483648	0.2131834440740031	0.02752876990692695	-0.2535094766969423
140.024	-0.01053115030744633	0.04019311222221353	0.04174957111363535	1.100918196941513	1.081341676511818	-0.4062178458959701	-0.175383436859438	-0.1143315693165549	-0.07085139248181826	0.8289742290638026	0.82897422859778	-0.5369340211037319	-0.4165741947176793	0.2432798039487529	0.0601823485991932	0.01411626152583848	0.2279055585034488	0.22790555822565	0.02683979187403114	-0.2602179409893001
140.028	-0.005815988015946418	0.04319383544036486	0.04312956286595437	1.10028886685401	1.078980295220149	-0.4066074791041736	-0.1689111308820438	-0.120461805034011	-0.06921121919687444	0.8572915317010709	0.8572915311629327	-0.5314140328014031	-0.4317808999617156	0.2382754336895969	0.06391957508121514	0.0130989518342659	0.24365156448457	0.2436515641038323	0.02810138822112399	-0.2667713511087956
140.032	-0.001192800051518158	0.04685057449025656	0.04507836277486219	1.099522720416788	1.076543741532426	-0.4070404015645582	-0.1620439708907548	-0.1274322692141552	-0.06846600490227406	0.8857595215214545	0.8857595209237498	-0.5248996446802415	-0.4456864067116995	0.2338138879267145	0.06846842865235599	0.01214077940805945	0.2604930819405741	0.2604930815476251	0.03138370791309193	-0.2731514754166168
140.036	0.003319688745980658	0.05117471604105719	0.04762424150278213	1.098611388843209	1.074034589568287	-0.407516454739214	-0.154734801492483	-0.1352666509154245	-0.068617856568258	0.9143608591600092	0.9143608585197898	-0.5173105822300855	-0.4582237151524025	0.2299185416764493	0.0738364605234791	0.01129242592228631	0.2784701452926217	0.2784701449645853	0.03668981823052194	-0.2793405994271395
140.04	0.007700932359226923	0.0561566041969002	0.05077967031404099	1.097549531250131	1.071458730181146	-0.408033764611303	-0.146938292452658	-0.1439624741561038	-0.06963685242398	0.9430633125013634	0.9430633118403045	-0.5085888152118793	-0.4693515113457854	0.2265979095847536	0.08000388196882546	0.01061030650181016	0.2975872936534398	0.2975872934511231	0.0439574058441811	-0.2853209251574685
140.044	0.011929410616765	0.0617653035449901	0.05453991760883645	1.096335071047309	1.068825359565952	-0.4085887240763276	-0.1386121298527724	-0.1534899065524719	-0.0714614366307906	0.9718181121823775	0.9718181115260333	-0.4987015683120352	-0.4790533217862908	0.2238440070559555	0.08692351129230895	0.01015339766538596	0.3178104364084237	0.3178104363747089	0.05306341314502509	-0.2910738312613684
140.048	0.01598380520431273	0.06794893923330358	0.05888207478071553	1.094969360764958	1.066146886065952	-0.4091760353805945	-0.1297184196447189	-0.1637912103807401	-0.07399994308274552	1.000558853355629	1.000558852731617	-0.4876433085025599	-0.4873360414159796	0.2216308958709591	0.09452145718221669	0.009979666872594811	0.3390648293480355	0.3390648295075295	0.06383136239769016	-0.2965790581716981
140.052	0.01984439554896696	0.07463562118845714	0.06376460244044865	1.093457259945441	1.063438749215658	-0.4097888139946828	-0.1202251844976785	-0.1747809098773724	-0.07713322382767222	1.029201081649489	1.029201081084714	-0.4754365479341339	-0.4942279720550638	0.2199136101324421	0.1026985247275391	0.01014229885848702	0.3612344334832378	0.3612344338432464	0.07604095693484279	-0.301813898590494
140.056	0.02349459654953895	0.08173496306686466	0.06912747190000421	1.09180711556381	1.060719151545293	-0.4104187532136037	-0.1101079012710538	-0.186346754734777	-0.08071833598962372	1.057642635815503	1.057642635332877	-0.4621314064765789	-0.4997765194345885	0.2186275752305486	0.1113323390574773	0.01068593914464657	0.3841628260631643	0.3841628266158411	0.08943939216663715	-0.3067524907895486
140.06	0.02692254678388815	0.08914019041294625	0.07489295244379092	1.09003063859001	1.05800870613747	-0.4110563457164162	-0.09935103033965489	-0.1983515373395479	-0.08459318785539748	1.085764766371863	1.085764765987152	-0.4478039595576214	-0.5040456812817274	0.2176886056426786	0.1202801728473059	0.01164319794659458	0.4076557341139695	0.4076557348393581	0.1037536869382658	-0.3113653258041473
140.064	0.03012256552386447	0.09673079313391683	0.08096706624809377	1.088142673531949	1.055329997985382	-0.4116911555708472	-0.08794938270824051	-0.2106357772273263	-0.08858197602917602	1.113434033254631	1.113434032974047	-0.4325534291299526	-0.5071133874247923	0.2169936379252108	0.1293824337302399	0.01303165614645397	0.4314851779857764	0.4314851788554129	0.1187032982461498	-0.3156190649953218
140.068	0.03309622206457902	0.104375640548249	0.08724170087587599	1.086160862343395	1.052707053778907	-0.4123121322222627	-0.07590907543199389	-0.2230212452058452	-0.09250119551153456	1.140504971222907	1.140504971041985	-0.4164983049956149	-0.5090686840166642	0.216422404604123	0.1384667387583971	0.01485158660909083	0.4553951195841717	0.4553951205648569	0.1340123029322327	-0.3194767329293395
140.072	0.03585283295654897	0.1119364615613606	0.09359732926899092	1.084105211530157	1.050164725693824	-0.4129079557562508	-0.06324791055158886	-0.2353152612580852	-0.09616597979001501	1.166823440802318	1.166823440706403	-0.3997715955627534	-0.5100088044164729	0.2158401234596823	0.1473524885271161	0.01708457081171769	0.4791083807347823	0.4791083817921112	0.149420465962971	-0.3228983542705312
140.076	0.03840936250661816	0.1192715873590361	0.09990623973583451	1.081997579124416	1.047728014049737	-0.4134673999109554	-0.04999519884582371	-0.2473156542528997	-0.09939650292219601	1.19223048355241	1.192230483518796	-0.3825155542092014	-0.5100362890074772	0.2151010481126649	0.1558558430590308	0.01969316024591421	0.5023344629052754	0.5023344640065647	0.1646925602503524	-0.3258421307202665
140.08	0.04078977606721311	0.1262398380391813	0.1060361372875449	1.079861102867381	1.045421363138043	-0.4139796970328476	-0.03619111523803773	-0.2588162196253704	-0.1020241457922988	1.216566455475554	1.216566455476899	-0.3648762777034441	-0.5092563416084124	0.2140526251489315	0.1637949754763452	0.02262167505997338	0.5247778273321254	0.5247778284485123	0.1796254176349362	-0.3282662288043406
140.084	0.04302391160829978	0.1327044180748161	0.1118539570266185	1.077719593829711	1.043267965555783	-0.4144348881485677	-0.02188566413221859	-0.2696124708020066	-0.1038971434434194	1.23967520987711	1.239675209885461	-0.346998556114696	-0.5077745808930454	0.2125399965724202	0.170995443927925	0.02579813031141371	0.5461461868300709	0.5461461879377125	0.1940523861059951	-0.3301311673935722
140.088	0.04514597545339708	0.1385366886796135	0.1172297310200444	1.075596922331334	1.041289111276333	-0.4148241419081601	-0.007137363982600967	-0.2795074665998777	-0.1048854990993435	1.261408099512466	1.261408099503051	-0.3290213368242881	-0.5056953432799854	0.210410563416662	0.177295502287719	0.02913716988552201	0.566158384187057	0.5661583852674763	0.2078450876018805	-0.3314027069571767
140.092	0.04719273140872215	0.1436196975287361	0.1220403651306759	1.073516422301489	1.039503609220158	-0.41514002869348	0.007988303722060686	-0.2883175083361174	-0.1048850061926323	1.281627607747233	1.281627607701276	-0.3110740519256908	-0.5031205864053026	0.2075184100928853	0.182551172173272	0.03254381681636324	0.5845515055395933	0.5845515065792193	0.2209125745565612	-0.3320550514497853
140.096	0.04920133026995772	0.1478513484782596	0.1261731968598812	1.07150033541253	1.037927290632571	-0.4153767392380285	0.02342081334271438	-0.2958775134787012	-0.1038202368159655	1.300210506605316	1.300210506511426	-0.2932738296490963	-0.5001492026608814	0.2037285960634831	0.1866408983015489	0.0359177983440313	0.6010870086334587	0.6010870096224039	0.2331981550048563	-0.3320740893208557
140.1	0.05120671085414859	0.151147088626253	0.1295292070937045	1.069569311344869	1.036572594162473	-0.4155302386864766	0.03908705706189095	-0.3020458667799468	-0.1016463889318921	1.317050496332452	1.317050496186582	-0.2757234486808474	-0.496876414603775	0.1989214133588142	0.1894695842344736	0.03915812714873306	0.6155557815335082	0.615555782463818	0.2446742786863556	-0.3314603798416323
140.104	0.05323866100367008	0.15344199458438	0.1320257578080911	1.067741978044014	1.035448240598978	-0.4155983484306221	0.05491433495525587	-0.3067085326562115	-0.0983499650601127	1.332060265233633	1.332060265037871	-0.2585099275976853	-0.4933930445160288	0.1929965739444174	0.1909717804432708	0.04216756734128226	0.6277821200321283	0.6277821208960142	0.2553359534944534	-0.3302316391489563
140.108	0.05531882895670904	0.1546921544044929	0.1335987291632334	1.066034595338975	1.034559020781767	-0.4155807506587291	0.07083359611118339	-0.3097821878569871	-0.09394832068946234	1.345172856921306	1.345172856681946	-0.241703809391515	-0.4897847317949282	0.1858770537390179	0.1911138018271424	0.04485668020652774	0.637626591210389	0.6376265919989437	0.265193216327522	-0.328424545278888
140.112	0.05745804876057541	0.1548752676474214	0.1342039386106262	1.064460803454934	1.033905724074419	-0.4154789138979343	0.08678254732331467	-0.3112161402813691	-0.08848813294523558	1.356342225698481	1.35634222542384	-0.2253592870042676	-0.4861313292569168	0.1775122120525439	0.1898945984069108	0.04714727139959884	0.6449877165754649	0.644987717278066	0.2742632321255896	-0.3260957086412363
